<?xml version="1.0" encoding="UTF-8"?>
<svg version="1.1" xmlns="http://www.w3.org/2000/svg" width="1200" height="1088">
<path d="M0 0 C63.03 0 126.06 0 191 0 C195.62 8.58 200.24 17.16 205 26 C209.7840299 34.49385338 209.7840299 34.49385338 214.59375 42.97265625 C218.409806 49.70114231 222.14504675 56.47358458 225.875 63.25 C227.23563287 65.72137851 228.59629734 68.19273962 229.95703125 70.6640625 C230.46246208 71.58210411 230.46246208 71.58210411 230.97810364 72.51869202 C234.49072462 78.89607714 238.02472076 85.26154071 241.5625 91.625 C242.17794678 92.73214355 242.79339355 93.83928711 243.42749023 94.97998047 C245.28464545 98.32018068 247.14223802 101.66013723 249 105 C257.02677837 119.43044831 265.03772212 133.86926298 273.00897217 148.33044434 C279.69253271 160.45448871 286.41190294 172.5584569 293.14111328 184.65722656 C296.26258349 190.2704614 299.3811369 195.8853163 302.5 201.5 C303.74998618 203.75000768 304.99998618 206.00000768 306.25 208.25 C333.75 257.75 361.25 307.25 388.75 356.75 C389.36866943 357.86358887 389.98733887 358.97717773 390.62475586 360.12451172 C391.87562493 362.37610862 393.12643867 364.62773626 394.37719727 366.87939453 C397.48844909 372.48021445 400.6006387 378.08050905 403.71484375 383.6796875 C410.50164033 395.88451497 417.26761067 408.1004866 424.00897217 420.33044434 C430.69253271 432.45448871 437.41190294 444.5584569 444.14111328 456.65722656 C447.26258349 462.2704614 450.3811369 467.8853163 453.5 473.5 C454.74998618 475.75000768 455.99998618 478.00000768 457.25 480.25 C479.75 520.75 502.25 561.25 524.75 601.75 C525.36866943 602.86358887 525.98733887 603.97717773 526.62475586 605.12451172 C527.87562493 607.37610862 529.12643867 609.62773626 530.37719727 611.87939453 C533.48844909 617.48021445 536.6006387 623.08050905 539.71484375 628.6796875 C546.50164033 640.88451497 553.26761067 653.1004866 560.00897217 665.33044434 C566.69253271 677.45448871 573.41190294 689.5584569 580.14111328 701.65722656 C583.26258349 707.2704614 586.3811369 712.8853163 589.5 718.5 C590.74998618 720.75000768 591.99998618 723.00000768 593.25 725.25 C615.75 765.75 638.25 806.25 660.75 846.75 C661.36907227 847.86431396 661.98814453 848.97862793 662.62597656 850.12670898 C663.87277666 852.37098165 665.11952168 854.61528491 666.36621094 856.85961914 C670.18605195 863.73603184 674.00748409 870.61155528 677.83203125 877.48535156 C679.09759502 879.76323747 680.36067059 882.0425078 681.62109375 884.32324219 C684.50706961 889.54292027 687.41767178 894.74185169 690.421875 899.89453125 C690.94426758 900.80404541 691.46666016 901.71355957 692.00488281 902.65063477 C692.96815404 904.32534881 693.94566407 905.9919929 694.94042969 907.64819336 C696.94722092 911.16850991 697.98918535 913.35977296 698.05859375 917.46875 C696.69368115 922.02181637 694.76155749 926.04652465 692.5625 930.25 C692.11003906 931.13421631 691.65757813 932.01843262 691.19140625 932.92944336 C689.80658764 935.62623334 688.40662697 938.31452942 687 941 C686.6169873 941.7317041 686.23397461 942.4634082 685.83935547 943.21728516 C684.3331233 946.08780444 682.82168668 948.95549693 681.30371094 951.81982422 C676.90378209 960.13578952 672.60987675 968.50575273 668.3125 976.875 C666.7370643 979.94275206 665.16156215 983.01046998 663.5859375 986.078125 C663.19653488 986.8363002 662.80713226 987.5944754 662.40592957 988.37562561 C658.76318008 995.46569862 655.10278756 1002.54655806 651.4375 1009.625 C645.75502701 1020.60030808 640.09000425 1031.58447886 634.43283081 1042.57284546 C628.48789106 1054.11951441 622.52753748 1065.65813956 616.55664062 1077.19140625 C615.97076172 1078.32320312 615.38488281 1079.455 614.78125 1080.62109375 C614.26626953 1081.6155249 613.75128906 1082.60995605 613.22070312 1083.63452148 C612.47200674 1085.08534533 611.73012822 1086.53974355 611 1088 C542.43902302 1088.12960367 473.88058536 1087.94970521 405.3203125 1087.64868164 C404.28143329 1087.64412481 403.24255408 1087.63956797 402.17219368 1087.63487305 C374.48667362 1087.51329754 346.80117858 1087.38640264 319.11569136 1087.2575883 C302.63779023 1087.18093375 286.15988484 1087.10525932 269.68197632 1087.03021049 C267.28489019 1087.01928892 264.88780407 1087.00836697 262.49071795 1086.99744467 C258.87590608 1086.98097447 255.26109422 1086.96450451 251.64628235 1086.94803641 C218.25323077 1086.79588233 184.8601841 1086.64268514 151.46714783 1086.48720646 C149.59651412 1086.47849713 149.59651412 1086.47849713 147.68808983 1086.46961185 C141.37204336 1086.44020202 135.05599694 1086.41078166 128.73995054 1086.38135714 C127.48625476 1086.37551658 126.23255898 1086.36967602 124.94087242 1086.36365847 C122.4056572 1086.35184755 119.870442 1086.34003613 117.33522679 1086.3282242 C77.71487288 1086.14365287 38.09450398 1085.96266405 -1.52587891 1085.78442383 C-46.34099897 1085.58280821 -91.15610552 1085.37848331 -135.97119522 1085.17022032 C-140.75303392 1085.14800729 -145.53487266 1085.12580341 -150.31671143 1085.10360527 C-152.08204996 1085.0954075 -152.08204996 1085.0954075 -153.8830519 1085.08704412 C-171.53846164 1085.00511165 -189.19388 1084.9252637 -206.8493042 1084.84651375 C-226.89765671 1084.757088 -246.94599382 1084.66480966 -266.99431604 1084.56882221 C-277.19549575 1084.52005603 -287.39667732 1084.47256405 -297.59787941 1084.42870712 C-301.44748097 1084.41199582 -305.29708196 1084.39515626 -309.14668274 1084.37826538 C-310.54139789 1084.37220097 -310.54139789 1084.37220097 -311.96428911 1084.36601405 C-321.65659118 1084.32335953 -331.34872132 1084.27316082 -341.04081059 1084.19527924 C-341.85162151 1084.1887859 -342.66243243 1084.18229256 -343.49781338 1084.17560245 C-346.65535852 1084.15008314 -349.81290073 1084.12434931 -352.97043165 1084.09712178 C-361.6182025 1084.02317933 -370.26149392 1083.9957855 -378.90956205 1084.07335575 C-382.97295137 1084.10498152 -387.03573968 1084.10177181 -391.09920657 1084.08916687 C-392.84166575 1084.09293959 -394.58419775 1084.11382061 -396.32619035 1084.15431757 C-401.01767422 1084.26265279 -405.4521464 1084.3192167 -410 1083 C-413.06651844 1080.01694354 -414.51717715 1076.96612934 -416 1073 C-416.60062256 1071.9488501 -417.20124512 1070.8977002 -417.82006836 1069.81469727 C-418.32159424 1068.90776123 -418.82312012 1068.0008252 -419.33984375 1067.06640625 C-419.91992188 1066.0196875 -420.5 1064.97296875 -421.09765625 1063.89453125 C-421.70480469 1062.79496094 -422.31195313 1061.69539063 -422.9375 1060.5625 C-423.59356387 1059.3775011 -424.24981816 1058.19260761 -424.90625 1057.0078125 C-426.26489156 1054.55525426 -427.62272709 1052.10225249 -428.97998047 1049.64892578 C-432.14566972 1043.92836989 -435.32355643 1038.21458876 -438.5 1032.5 C-439.75005534 1030.25003075 -441.00005521 1028.00003067 -442.25 1025.75 C-442.86875 1024.63625 -443.4875 1023.5225 -444.125 1022.375 C-451 1010 -457.875 997.625 -464.75 985.25 C-465.36907227 984.13568604 -465.98814453 983.02137207 -466.62597656 981.87329102 C-467.87277666 979.62901835 -469.11952168 977.38471509 -470.36621094 975.14038086 C-474.18610179 968.26387844 -478.00796603 961.38847766 -481.83178711 954.51416016 C-483.70983454 951.13477432 -485.58349733 947.75298336 -487.45703125 944.37109375 C-489.74435879 940.24592441 -492.05425054 936.13495721 -494.38671875 932.03515625 C-495.16354004 930.65734985 -495.16354004 930.65734985 -495.95605469 929.25170898 C-496.91300514 927.55496707 -497.87796123 925.86270418 -498.85253906 924.17602539 C-502.87989273 916.99484145 -502.87989273 916.99484145 -502 913 C-500.7560015 910.39238776 -499.46160156 907.98089498 -498 905.5 C-497.07833075 903.88864743 -496.15784223 902.27661915 -495.23828125 900.6640625 C-494.72475098 899.76977539 -494.2112207 898.87548828 -493.68212891 897.95410156 C-490.81024028 892.91058162 -488.01468484 887.82478209 -485.21514893 882.74087524 C-484.1814483 880.86401209 -483.14626083 878.98797508 -482.11083984 877.11206055 C-477.19706704 868.20402564 -472.34050838 859.26594201 -467.50585938 850.31469727 C-464.04718567 843.91668798 -460.54725412 837.54388404 -457.00488281 831.19189453 C-452.41345541 822.95817669 -447.86372736 814.70150825 -443.31201172 806.44580078 C-442.61555991 805.18261718 -441.91910809 803.91943359 -441.22265625 802.65625 C-440.70037445 801.70889481 -440.70037445 801.70889481 -440.1675415 800.74240112 C-437.73842348 796.33700517 -435.30556082 791.93369183 -432.87109375 787.53125 C-431.51794685 785.08348928 -430.16510023 782.63556285 -428.8125 780.1875 C-428.47920685 779.58430939 -428.1459137 778.98111877 -427.80252075 778.35964966 C-423.26177662 770.13834606 -418.76854052 761.89258162 -414.3125 753.625 C-410.17390268 745.94645444 -405.94394616 738.32849103 -401.625 730.75 C-396.7166712 722.13426877 -391.97606284 713.43722381 -387.3125 704.6875 C-382.11307084 694.93320979 -376.83538432 685.23096877 -371.44042969 675.58349609 C-368.34010456 670.02287907 -365.26420557 664.44870934 -362.1875 658.875 C-361.84411591 658.25306763 -361.50073181 657.63113525 -361.14694214 656.99035645 C-355.88552451 647.45738608 -350.68036103 637.89517161 -345.50585938 628.31469727 C-341.64864281 621.17944557 -337.73066938 614.080595 -333.78125 606.99609375 C-330.2341498 600.63116657 -326.70938388 594.25390283 -323.1875 587.875 C-322.84429718 587.25343018 -322.50109436 586.63186035 -322.14749146 585.99145508 C-316.88590103 576.45811354 -311.68055504 566.89553081 -306.50585938 557.31469727 C-302.64864281 550.17944557 -298.73066938 543.080595 -294.78125 535.99609375 C-291.2341498 529.63116657 -287.70938388 523.25390283 -284.1875 516.875 C-283.84429718 516.25343018 -283.50109436 515.63186035 -283.14749146 514.99145508 C-277.88590103 505.45811354 -272.68055504 495.89553081 -267.50585938 486.31469727 C-264.04718567 479.91668798 -260.54725412 473.54388404 -257.00488281 467.19189453 C-252.41345541 458.95817669 -247.86372736 450.70150825 -243.31201172 442.44580078 C-242.61555991 441.18261718 -241.91910809 439.91943359 -241.22265625 438.65625 C-240.87446838 438.02467987 -240.52628052 437.39310974 -240.1675415 436.74240112 C-237.73842348 432.33700517 -235.30556082 427.93369183 -232.87109375 423.53125 C-231.51794685 421.08348928 -230.16510023 418.63556285 -228.8125 416.1875 C-228.47920685 415.58430939 -228.1459137 414.98111877 -227.80252075 414.35964966 C-223.26177662 406.13834606 -218.76854052 397.89258162 -214.3125 389.625 C-210.17390268 381.94645444 -205.94394616 374.32849103 -201.625 366.75 C-196.7166712 358.13426877 -191.97606284 349.43722381 -187.3125 340.6875 C-182.11307084 330.93320979 -176.83538432 321.23096877 -171.44042969 311.58349609 C-168.34010456 306.02287907 -165.26420557 300.44870934 -162.1875 294.875 C-161.84411591 294.25306763 -161.50073181 293.63113525 -161.14694214 292.99035645 C-155.88552451 283.45738608 -150.68036103 273.89517161 -145.50585938 264.31469727 C-141.64864281 257.17944557 -137.73066938 250.080595 -133.78125 242.99609375 C-130.2341498 236.63116657 -126.70938388 230.25390283 -123.1875 223.875 C-122.84429718 223.25343018 -122.50109436 222.63186035 -122.14749146 221.99145508 C-116.88590103 212.45811354 -111.68055504 202.89553081 -106.50585938 193.31469727 C-102.64864281 186.17944557 -98.73066938 179.080595 -94.78125 171.99609375 C-91.2341498 165.63116657 -87.70938388 159.25390283 -84.1875 152.875 C-83.84429718 152.25343018 -83.50109436 151.63186035 -83.14749146 150.99145508 C-77.88590103 141.45811354 -72.68055504 131.89553081 -67.50585938 122.31469727 C-64.04718567 115.91668798 -60.54725412 109.54388404 -57.00488281 103.19189453 C-52.41345541 94.95817669 -47.86372736 86.70150825 -43.31201172 78.44580078 C-42.61555991 77.18261718 -41.91910809 75.91943359 -41.22265625 74.65625 C-40.87446838 74.02467987 -40.52628052 73.39310974 -40.1675415 72.74240112 C-37.73842349 68.33700517 -35.30556146 63.93369147 -32.87109375 59.53125 C-31.5179434 57.08349118 -30.16509251 54.63556712 -28.8125 52.1875 C-28.3150528 51.28720062 -28.3150528 51.28720062 -27.80755615 50.36871338 C-22.65415819 41.03783728 -17.55143525 31.6803163 -12.51098633 22.2878418 C-8.46649548 14.77625498 -4.23768994 7.41595739 0 0 Z M99 500 C98.5035498 500.92558716 98.5035498 500.92558716 97.99707031 501.86987305 C91.66439415 513.6602875 85.26259226 525.39891632 78.58837891 536.99975586 C74.72108717 543.72435748 70.91065578 550.47911718 67.125 557.25 C66.24835693 558.81778198 66.24835693 558.81778198 65.35400391 560.41723633 C64.1646078 562.54526011 62.97548147 564.67343469 61.78662109 566.80175781 C53.85495333 581.00028851 45.90320731 595.18695411 37.89208984 609.34082031 C31.55715696 620.53949514 25.2798583 631.77038025 19 643 C11.65869284 656.12769874 4.30411895 669.2472626 -3.10571289 682.33642578 C-7.09058281 689.37976026 -11.04987613 696.43712833 -15 703.5 C-19.63161159 711.77888484 -24.27343312 720.05184872 -28.9375 728.3125 C-29.47592529 729.26664795 -30.01435059 730.2207959 -30.5690918 731.20385742 C-33.947583 737.17753625 -37.38209516 743.11073894 -40.92578125 748.98828125 C-42.1570109 750.91394509 -42.1570109 750.91394509 -42 753 C50.07 753 142.14 753 237 753 C235.57090111 748.71270332 234.30909156 745.4413416 232.19921875 741.5703125 C231.64089355 740.5400293 231.08256836 739.50974609 230.50732422 738.44824219 C229.90678223 737.35157227 229.30624023 736.25490234 228.6875 735.125 C227.73646204 733.37426466 226.78542666 731.62352791 225.83459473 729.87268066 C224.85964703 728.07925231 223.88249721 726.2870398 222.90478516 724.49511719 C220.5866041 720.24145403 218.28288655 715.98007536 215.97973633 711.71826172 C210.84866899 702.22738742 205.68733327 692.75313086 200.5168457 683.28369141 C194.09903984 671.5252528 187.72958716 659.7406139 181.35449219 647.95898438 C175.09485923 636.39186702 168.82301595 624.83172549 162.51928711 613.28857422 C158.28008082 605.52237613 154.06633098 597.74253088 149.85546875 589.9609375 C146.24976076 583.30027406 142.63014004 576.64737597 139 570 C133.19919594 559.37649552 127.43257489 548.73464881 121.671875 538.08935547 C118.80304334 532.78821706 115.93284952 527.48781665 113.0625 522.1875 C112.54308838 521.2279541 112.02367676 520.2684082 111.48852539 519.27978516 C108.00475612 512.84639839 104.50675992 506.42088286 101 500 C100.34 500 99.68 500 99 500 Z " fill="#3B3C3B" transform="translate(502,0)"/>
<path d="M0 0 C61.05 0 122.1 0 185 0 C206.25 38.25 227.5 76.5 248.75 114.75 C249.36866943 115.86358887 249.98733887 116.97717773 250.62475586 118.12451172 C251.87562493 120.37610862 253.12643867 122.62773626 254.37719727 124.87939453 C257.48844909 130.48021445 260.6006387 136.08050905 263.71484375 141.6796875 C270.50164033 153.88451497 277.26761067 166.1004866 284.00897217 178.33044434 C290.69253271 190.45448871 297.41190294 202.5584569 304.14111328 214.65722656 C307.26258349 220.2704614 310.3811369 225.8853163 313.5 231.5 C314.74998618 233.75000768 315.99998618 236.00000768 317.25 238.25 C339.75 278.75 362.25 319.25 384.75 359.75 C385.36866943 360.86358887 385.98733887 361.97717773 386.62475586 363.12451172 C387.87562493 365.37610862 389.12643867 367.62773626 390.37719727 369.87939453 C393.48844909 375.48021445 396.6006387 381.08050905 399.71484375 386.6796875 C406.50164033 398.88451497 413.26761067 411.1004866 420.00897217 423.33044434 C426.69253271 435.45448871 433.41190294 447.5584569 440.14111328 459.65722656 C443.26258349 465.2704614 446.3811369 470.8853163 449.5 476.5 C450.74998618 478.75000768 451.99998618 481.00000768 453.25 483.25 C480.75 532.75 508.25 582.25 535.75 631.75 C536.36866943 632.86358887 536.98733887 633.97717773 537.62475586 635.12451172 C538.87562493 637.37610862 540.12643867 639.62773626 541.37719727 641.87939453 C544.48844909 647.48021445 547.6006387 653.08050905 550.71484375 658.6796875 C557.50164033 670.88451497 564.26761067 683.1004866 571.00897217 695.33044434 C577.69253271 707.45448871 584.41190294 719.5584569 591.14111328 731.65722656 C594.26258349 737.2704614 597.3811369 742.8853163 600.5 748.5 C601.74998618 750.75000768 602.99998618 753.00000768 604.25 755.25 C656.75 849.75000001 656.75 849.75000001 658.62670898 853.12817383 C659.87090171 855.36765588 661.11520427 857.60707692 662.35961914 859.84643555 C665.239085 865.02841756 668.11757364 870.21093314 670.9919281 875.39575195 C672.63990038 878.3683074 674.28863986 881.34043698 675.9375 884.3125 C676.56342041 885.44091309 677.18934082 886.56932617 677.83422852 887.73193359 C681.75374961 894.78738668 685.72022116 901.8118453 689.77734375 908.7890625 C691 911 691 911 691 912 C417.43 912 143.86 912 -138 912 C-132.99991313 902.62483712 -127.9840105 893.27862606 -122.8125 884 C-122.16013391 882.82748639 -121.50779067 881.65496006 -120.85546875 880.48242188 C-116.24524855 872.20260041 -111.58952454 863.94891033 -106.9152832 855.70507812 C-102.73611795 848.32581177 -98.61140211 840.91720228 -94.5 833.5 C-89.32544318 824.16584222 -84.11128877 814.85576655 -78.84814453 805.57128906 C-76.0397622 800.61511785 -73.24272623 795.65302992 -70.46484375 790.6796875 C-69.56584351 789.0702124 -69.56584351 789.0702124 -68.64868164 787.42822266 C-67.52548706 785.41559402 -66.4034356 783.40232665 -65.28295898 781.38818359 C-64.21625594 779.47698701 -63.1294767 777.57685493 -62.02274829 775.68855411 C-60.46442204 772.9552021 -59.17346774 770.16819115 -57.90953845 767.28778476 C-52.04776461 754.68758682 -52.04776461 754.68758682 -47.01779343 751.9024265 C-41.39958827 750.17553222 -35.60554983 750.53134396 -29.79621887 750.71516418 C-27.84389304 750.70687051 -25.89158798 750.69021899 -23.93939513 750.66597003 C-18.59137694 750.62358764 -13.25062216 750.69928617 -7.90353 750.79475319 C-2.13203499 750.87695663 3.63906433 750.84902799 9.41098022 750.83460999 C19.40507488 750.82465606 29.39680939 750.88416461 39.39031029 750.99112892 C53.83872964 751.14567512 68.28601005 751.19503861 82.73516635 751.21890076 C106.17833245 751.25877551 129.62026986 751.38668922 153.06274414 751.56665039 C175.83220906 751.74124291 198.60133739 751.87578691 221.37133789 751.95629883 C222.07359144 751.95879783 222.77584498 751.96129682 223.49937894 751.96387155 C230.551902 751.98892411 237.60442767 752.01316448 244.65695558 752.03680987 C259.02289331 752.08499382 273.38880914 752.1385976 287.75471497 752.19548035 C289.07402143 752.20070016 290.39332789 752.20591997 291.75261334 752.21129795 C335.16890289 752.38545096 378.58453784 752.68438653 422 753 C421.06261421 751.11021804 420.12346392 749.22131127 419.18359375 747.33276367 C418.66079834 746.28078293 418.13800293 745.22880219 417.59936523 744.14494324 C415.21154249 739.4496011 412.61858801 734.88193607 410 730.3125 C408.85366906 728.29846022 407.70785384 726.28412685 406.5625 724.26953125 C405.97597656 723.23908691 405.38945313 722.20864258 404.78515625 721.14697266 C401.83380395 715.94416478 398.91764752 710.72175963 396 705.5 C391.51999518 697.48858807 387.021938 689.48781749 382.5 681.5 C375.03067362 668.30362291 367.63063555 655.068682 360.22949219 641.83398438 C353.47768207 629.76200141 346.708437 617.70048974 339.89428711 605.66357422 C335.31436491 597.56847336 330.77032338 589.45355836 326.23046875 581.3359375 C322.33841945 574.38030171 318.42660258 567.43618197 314.5 560.5 C307.03067362 547.30362291 299.63063555 534.068682 292.22949219 520.83398438 C285.47768207 508.76200141 278.708437 496.70048974 271.89428711 484.66357422 C267.31436491 476.56847336 262.77032338 468.45355836 258.23046875 460.3359375 C254.33841945 453.38030171 250.42660258 446.43618197 246.5 439.5 C239.03067362 426.30362291 231.63063555 413.068682 224.22949219 399.83398438 C218.00805614 388.71029032 211.77802466 377.59187595 205.5 366.5 C198.03078676 353.30355826 190.630636 340.06868279 183.22949219 326.83398438 C176.47768207 314.76200141 169.708437 302.70048974 162.89428711 290.66357422 C158.31436491 282.56847336 153.77032338 274.45355836 149.23046875 266.3359375 C145.33841945 259.38030171 141.42660258 252.43618197 137.5 245.5 C130.03067362 232.30362291 122.63063555 219.068682 115.22949219 205.83398438 C108.47768207 193.76200141 101.708437 181.70048974 94.89428711 169.66357422 C90.31436491 161.56847336 85.77032338 153.45355836 81.23046875 145.3359375 C77.33841945 138.38030171 73.42660258 131.43618197 69.5 124.5 C62.03067362 111.30362291 54.63063555 98.068682 47.22949219 84.83398438 C40.48136424 72.76858499 33.71638287 60.71332044 26.90527344 48.68334961 C22.21248976 40.38957566 17.5580053 32.07460863 12.90966797 23.75585938 C9.0760451 16.90131118 5.19866481 10.07468578 1.2578125 3.28125 C0 1 0 1 0 0 Z " fill="#FEFEFE" transform="translate(506,3)"/>
<path d="M0 0 C0.99 0 1.98 0 3 0 C3.4964502 0.92558716 3.4964502 0.92558716 4.00292969 1.86987305 C10.33560585 13.6602875 16.73740774 25.39891632 23.41162109 36.99975586 C27.27891283 43.72435748 31.08934422 50.47911718 34.875 57.25 C35.45942871 58.29518799 36.04385742 59.34037598 36.64599609 60.41723633 C37.8353922 62.54526011 39.02451853 64.67343469 40.21337891 66.80175781 C43.16058535 72.07757149 46.11089729 77.35164478 49.0625 82.625 C49.64241699 83.66108398 50.22233398 84.69716797 50.81982422 85.76464844 C54.69662001 92.68587235 58.59239539 99.59613009 62.5 106.5 C69.96921324 119.69644174 77.369364 132.93131721 84.77050781 146.16601562 C91.52231793 158.23799859 98.291563 170.29951026 105.10571289 182.33642578 C109.68563509 190.43152664 114.22967662 198.54644164 118.76953125 206.6640625 C122.66158055 213.61969829 126.57339742 220.56381803 130.5 227.5 C137.96932638 240.69637709 145.36936445 253.931318 152.77050781 267.16601562 C159.52231793 279.23799859 166.291563 291.29951026 173.10571289 303.33642578 C177.68563509 311.43152664 182.22967662 319.54644164 186.76953125 327.6640625 C190.66158055 334.61969829 194.57339742 341.56381803 198.5 348.5 C205.96932638 361.69637709 213.36936445 374.931318 220.77050781 388.16601562 C226.99194386 399.28970968 233.22197534 410.40812405 239.5 421.5 C246.96921324 434.69644174 254.369364 447.93131721 261.77050781 461.16601562 C268.52231793 473.23799859 275.291563 485.29951026 282.10571289 497.33642578 C286.68563509 505.43152664 291.22967662 513.54644164 295.76953125 521.6640625 C299.66158055 528.61969829 303.57339742 535.56381803 307.5 542.5 C314.96932638 555.69637709 322.36936445 568.931318 329.77050781 582.16601562 C336.52231793 594.23799859 343.291563 606.29951026 350.10571289 618.33642578 C354.68563509 626.43152664 359.22967662 634.54644164 363.76953125 642.6640625 C367.66158055 649.61969829 371.57339742 656.56381803 375.5 663.5 C382.99656144 676.74449443 390.42456839 690.02716916 397.85107422 703.31103516 C407.84943696 721.19859345 407.84943696 721.19859345 418 739 C417.01 739.33 416.02 739.66 415 740 C407.76998104 727.44711721 400.66256244 714.830924 393.64257812 702.15942383 C389.08436255 693.93686294 384.47909207 685.74240576 379.84399414 677.56298828 C375.87379371 670.55432583 371.93131681 663.53054011 368 656.5 C363.51970664 648.48874844 359.0219389 640.48781909 354.5 632.5 C347.03067362 619.30362291 339.63063555 606.068682 332.22949219 592.83398438 C325.47768207 580.76200141 318.708437 568.70048974 311.89428711 556.66357422 C307.31436491 548.56847336 302.77032338 540.45355836 298.23046875 532.3359375 C294.33841963 525.38030205 290.42666228 518.43614796 286.5 511.5 C281.38265197 502.46059691 276.3006682 493.40185704 271.23046875 484.3359375 C267.33841945 477.38030171 263.42660258 470.43618197 259.5 463.5 C252.03067362 450.30362291 244.63063555 437.068682 237.22949219 423.83398438 C230.47768207 411.76200141 223.708437 399.70048974 216.89428711 387.66357422 C212.31436491 379.56847336 207.77032338 371.45355836 203.23046875 363.3359375 C199.33841945 356.38030171 195.42660258 349.43618197 191.5 342.5 C184.03067362 329.30362291 176.63063555 316.068682 169.22949219 302.83398438 C162.47768207 290.76200141 155.708437 278.70048974 148.89428711 266.66357422 C144.31436491 258.56847336 139.77032338 250.45355836 135.23046875 242.3359375 C131.33841945 235.38030171 127.42660258 228.43618197 123.5 221.5 C116.03067362 208.30362291 108.63063555 195.068682 101.22949219 181.83398438 C94.47768207 169.76200141 87.708437 157.70048974 80.89428711 145.66357422 C76.31436491 137.56847336 71.77032338 129.45355836 67.23046875 121.3359375 C63.33841945 114.38030171 59.42660258 107.43618197 55.5 100.5 C48.03067362 87.30362291 40.63063555 74.068682 33.22949219 60.83398438 C26.88067454 49.48253682 20.52320445 38.13620266 14.125 26.8125 C13.58907227 25.86334717 13.05314453 24.91419434 12.50097656 23.9362793 C10.15554265 19.78793006 7.80171345 15.64539513 5.41015625 11.5234375 C5.02907715 10.86496826 4.64799805 10.20649902 4.25537109 9.52807617 C3.2718252 7.83284241 2.28265808 6.14087329 1.29296875 4.44921875 C0 2 0 2 0 0 Z " fill="#121212" transform="translate(507,9)"/>
<path d="M0 0 C3 1 3 1 4.38671875 3.28515625 C4.81597656 4.20167969 5.24523437 5.11820312 5.6875 6.0625 C6.34298828 7.44115234 6.34298828 7.44115234 7.01171875 8.84765625 C7.33785156 9.55792969 7.66398438 10.26820313 8 11 C7.01 11 6.02 11 5 11 C4.16151196 9.54462432 3.32936066 8.08559627 2.5 6.625 C1.80390625 5.40683594 1.80390625 5.40683594 1.09375 4.1640625 C0 2 0 2 0 0 Z " fill="#0E0E0D" transform="translate(569,119)"/>
<path d="M0 0 C3 1 3 1 4.38671875 3.28515625 C4.81597656 4.20167969 5.24523437 5.11820313 5.6875 6.0625 C6.34298828 7.44115234 6.34298828 7.44115234 7.01171875 8.84765625 C7.33785156 9.55792969 7.66398438 10.26820312 8 11 C7.01 11 6.02 11 5 11 C4.16151196 9.54462432 3.32936066 8.08559627 2.5 6.625 C1.80390625 5.40683594 1.80390625 5.40683594 1.09375 4.1640625 C0 2 0 2 0 0 Z " fill="#0D0D0D" transform="translate(519,30)"/>
<path d="M0 0 C0.99 0 1.98 0 3 0 C3.99 2.31 4.98 4.62 6 7 C4.125 6.875 4.125 6.875 2 6 C0.75 2.9375 0.75 2.9375 0 0 Z " fill="#161616" transform="translate(679,315)"/>
</svg>
